<?xml version="1.0" encoding="UTF-8"?>
<svg width="100" height="100" viewBox="0 0 100 100" xmlns="http://www.w3.org/2000/svg">
  <!-- 音符1 -->
  <path d="M30 20 Q35 15, 40 20 L40 50 Q30 45, 20 50 Q20 60, 30 55 Q40 50, 40 60 L40 20" fill="currentColor"/>
  <!-- 音符2 -->
  <path d="M70 40 Q75 35, 80 40 L80 70 Q70 65, 60 70 Q60 80, 70 75 Q80 70, 80 80 L80 40" fill="currentColor"/>
  <!-- 音符3 -->
  <path d="M50 60 Q55 55, 60 60 L60 90 Q50 85, 40 90 Q40 100, 50 95 Q60 90, 60 100 L60 60" fill="currentColor"/>
</svg> 